<svg xmlns="http://www.w3.org/2000/svg" xmlns:xlink="http://www.w3.org/1999/xlink" xmlns:lucid="lucid" width="1776.09" height="640"><g transform="translate(-223.90740740740742 -1.4210854715202004e-14)" lucid:page-tab-id="0_0"><path d="M0 0h2000v1000H0z" fill="#fff"/><path d="M406.33 232.9a6 6 0 0 1 6-6H613a6 6 0 0 1 6 6v174.2a6 6 0 0 1-6 6H412.32a6 6 0 0 1-6-6z" stroke="#000" fill="#fff"/><use xlink:href="#a" transform="matrix(1,0,0,1,411.3291139240506,231.89655172413794) translate(42.62962962962962 80.39930555555556)"/><use xlink:href="#b" transform="matrix(1,0,0,1,411.3291139240506,231.89655172413794) translate(18.864197530864203 109.7326388888889)"/><use xlink:href="#c" transform="matrix(1,0,0,1,411.3291139240506,231.89655172413794) translate(130.08641975308643 109.7326388888889)"/><path d="M302 320h81.1M302.05 320H300" stroke="#3a414a" stroke-width="4" fill="none"/><path d="M399.36 320l-14.27 4.63v-9.26z" stroke="#3a414a" stroke-width="4" fill="#3a414a"/><use xlink:href="#d" transform="matrix(1,0,0,1,228.90740740740742,286.6666666666667) translate(0 19.555555555555554)"/><use xlink:href="#e" transform="matrix(1,0,0,1,228.90740740740742,286.6666666666667) translate(82.7037037037037 19.555555555555554)"/><path d="M746.58 232.9a6 6 0 0 1 6-6h200.66a6 6 0 0 1 6 6v174.2a6 6 0 0 1-6 6H752.58a6 6 0 0 1-6-6z" stroke="#000" fill="#fff"/><use xlink:href="#f" transform="matrix(1,0,0,1,751.5822784810126,231.89655172413794) translate(21.51234567901234 80.39930555555556)"/><use xlink:href="#g" transform="matrix(1,0,0,1,751.5822784810126,231.89655172413794) translate(131.30864197530866 80.39930555555556)"/><use xlink:href="#h" transform="matrix(1,0,0,1,751.5822784810126,231.89655172413794) translate(21.138888888888886 109.7326388888889)"/><use xlink:href="#i" transform="matrix(1,0,0,1,751.5822784810126,231.89655172413794) translate(82.11419753086419 109.7326388888889)"/><use xlink:href="#j" transform="matrix(1,0,0,1,751.5822784810126,231.89655172413794) translate(103.16358024691357 109.7326388888889)"/><use xlink:href="#k" transform="matrix(1,0,0,1,751.5822784810126,231.89655172413794) translate(143.90432098765433 109.7326388888889)"/><path d="M621.5 320h101.84" stroke="#3a414a" stroke-width="4" fill="none"/><path d="M621.54 322h-2.05v-4h2.04z" stroke="#3a414a" stroke-width=".05" fill="#3a414a"/><path d="M739.6 320l-14.26 4.63v-9.26z" stroke="#3a414a" stroke-width="4" fill="#3a414a"/><path d="M1086.84 26a6 6 0 0 1 6-6h200.65a6 6 0 0 1 6 6v174.2a6 6 0 0 1-6 6h-200.66a6 6 0 0 1-6-6z" stroke="#000" fill="#fff"/><use xlink:href="#l" transform="matrix(1,0,0,1,1091.8354430379743,25.000000000000014) translate(24.873456790123456 80.39930555555556)"/><use xlink:href="#m" transform="matrix(1,0,0,1,1091.8354430379743,25.000000000000014) translate(16.1820987654321 109.7326388888889)"/><use xlink:href="#c" transform="matrix(1,0,0,1,1091.8354430379743,25.000000000000014) translate(132.76851851851853 109.7326388888889)"/><path d="M1086.84 439.8a6 6 0 0 1 6-6h200.65a6 6 0 0 1 6 6V614a6 6 0 0 1-6 6h-200.66a6 6 0 0 1-6-6z" stroke="#000" fill="#fff"/><use xlink:href="#l" transform="matrix(1,0,0,1,1091.8354430379743,438.7931034482758) translate(24.873456790123456 80.39930555555556)"/><use xlink:href="#b" transform="matrix(1,0,0,1,1091.8354430379743,438.7931034482758) translate(18.864197530864203 109.7326388888889)"/><use xlink:href="#c" transform="matrix(1,0,0,1,1091.8354430379743,438.7931034482758) translate(130.08641975308643 109.7326388888889)"/><path d="M961.74 320h55.3a6 6 0 0 1 6 6v194.9a6 6 0 0 0 6 6h34.56" stroke="#3a414a" stroke-width="4" fill="none"/><path d="M961.8 322h-2.06v-4h2.05z" stroke="#3a414a" stroke-width=".05" fill="#3a414a"/><path d="M1079.86 526.9l-14.26 4.63v-9.27z" stroke="#3a414a" stroke-width="4" fill="#3a414a"/><path d="M961.74 320h55.3a6 6 0 0 0 6-6V119.1a6 6 0 0 1 6-6h34.56" stroke="#3a414a" stroke-width="4" fill="none"/><path d="M961.8 322h-2.06v-4h2.05z" stroke="#3a414a" stroke-width=".05" fill="#3a414a"/><path d="M1079.86 113.1l-14.26 4.64v-9.27z" stroke="#3a414a" stroke-width="4" fill="#3a414a"/><path d="M1427.1 26a6 6 0 0 1 6-6h200.65a6 6 0 0 1 6 6v174.2a6 6 0 0 1-6 6H1433.1a6 6 0 0 1-6-6z" stroke="#000" fill="#fff"/><use xlink:href="#n" transform="matrix(1,0,0,1,1432.0886075949368,25.000000000000014) translate(24.160493827160508 80.39930555555556)"/><use xlink:href="#o" transform="matrix(1,0,0,1,1432.0886075949368,25.000000000000014) translate(86.62962962962963 80.39930555555556)"/><use xlink:href="#p" transform="matrix(1,0,0,1,1432.0886075949368,25.000000000000014) translate(1.8888888888888857 109.7326388888889)"/><use xlink:href="#q" transform="matrix(1,0,0,1,1432.0886075949368,25.000000000000014) translate(66.87037037037037 109.7326388888889)"/><path d="M1302 113.1h101.85" stroke="#3a414a" stroke-width="4" fill="none"/><path d="M1302.05 115.1H1300v-4h2.05z" stroke="#3a414a" stroke-width=".05" fill="#3a414a"/><path d="M1420.12 113.1l-14.27 4.64v-9.27z" stroke="#3a414a" stroke-width="4" fill="#3a414a"/><path d="M1427.1 439.8a6 6 0 0 1 6-6h200.65a6 6 0 0 1 6 6V614a6 6 0 0 1-6 6H1433.1a6 6 0 0 1-6-6z" stroke="#000" fill="#fff"/><g><use xlink:href="#n" transform="matrix(1,0,0,1,1432.0886075949368,438.7931034482758) translate(24.160493827160508 80.39930555555556)"/><use xlink:href="#o" transform="matrix(1,0,0,1,1432.0886075949368,438.7931034482758) translate(86.62962962962963 80.39930555555556)"/><use xlink:href="#r" transform="matrix(1,0,0,1,1432.0886075949368,438.7931034482758) translate(4.570987654320987 109.7326388888889)"/><use xlink:href="#q" transform="matrix(1,0,0,1,1432.0886075949368,438.7931034482758) translate(64.18827160493827 109.7326388888889)"/></g><path d="M1302 526.9h101.85" stroke="#3a414a" stroke-width="4" fill="none"/><path d="M1302.05 528.9H1300v-4h2.05z" stroke="#3a414a" stroke-width=".05" fill="#3a414a"/><path d="M1420.12 526.9l-14.27 4.63v-9.27z" stroke="#3a414a" stroke-width="4" fill="#3a414a"/><path d="M1767.34 26a6 6 0 0 1 6-6H1974a6 6 0 0 1 6 6v174.2a6 6 0 0 1-6 6h-200.66a6 6 0 0 1-6-6z" stroke="#000" fill="#fff"/><g><use xlink:href="#s" transform="matrix(1,0,0,1,1772.3417721518986,25.000000000000014) translate(41.91666666666667 80.39930555555556)"/><use xlink:href="#t" transform="matrix(1,0,0,1,1772.3417721518986,25.000000000000014) translate(96.16975308641976 80.39930555555556)"/><use xlink:href="#p" transform="matrix(1,0,0,1,1772.3417721518986,25.000000000000014) translate(1.8888888888888857 109.7326388888889)"/><use xlink:href="#q" transform="matrix(1,0,0,1,1772.3417721518986,25.000000000000014) translate(66.87037037037037 109.7326388888889)"/></g><path d="M1642.25 113.1h101.85" stroke="#3a414a" stroke-width="4" fill="none"/><path d="M1642.3 115.1h-2.05v-4h2.05z" stroke="#3a414a" stroke-width=".05" fill="#3a414a"/><path d="M1760.37 113.1l-14.27 4.64v-9.27z" stroke="#3a414a" stroke-width="4" fill="#3a414a"/><path d="M1767.34 439.8a6 6 0 0 1 6-6H1974a6 6 0 0 1 6 6V614a6 6 0 0 1-6 6h-200.66a6 6 0 0 1-6-6z" stroke="#000" fill="#fff"/><g><use xlink:href="#s" transform="matrix(1,0,0,1,1772.3417721518986,438.7931034482758) translate(41.91666666666667 80.39930555555556)"/><use xlink:href="#t" transform="matrix(1,0,0,1,1772.3417721518986,438.7931034482758) translate(96.16975308641976 80.39930555555556)"/><use xlink:href="#r" transform="matrix(1,0,0,1,1772.3417721518986,438.7931034482758) translate(4.570987654320987 109.7326388888889)"/><use xlink:href="#q" transform="matrix(1,0,0,1,1772.3417721518986,438.7931034482758) translate(64.18827160493827 109.7326388888889)"/></g><path d="M1642.25 526.9h101.85" stroke="#3a414a" stroke-width="4" fill="none"/><path d="M1642.3 528.9h-2.05v-4h2.05z" stroke="#3a414a" stroke-width=".05" fill="#3a414a"/><path d="M1760.37 526.9l-14.27 4.63v-9.27z" stroke="#3a414a" stroke-width="4" fill="#3a414a"/><defs><path d="M63-220v92h138v28H63V0H30v-248h175v28H63" id="u"/><path d="M24-231v-30h32v30H24zM24 0v-190h32V0H24" id="v"/><path d="M114-163C36-179 61-72 57 0H25l-1-190h30c1 12-1 29 2 39 6-27 23-49 58-41v29" id="w"/><path d="M135-143c-3-34-86-38-87 0 15 53 115 12 119 90S17 21 10-45l28-5c4 36 97 45 98 0-10-56-113-15-118-90-4-57 82-63 122-42 12 7 21 19 24 35" id="x"/><path d="M59-47c-2 24 18 29 38 22v24C64 9 27 4 27-40v-127H5v-23h24l9-43h21v43h35v23H59v120" id="y"/><path d="M16-82v-28h88v28H16" id="z"/><path d="M140-251c81 0 123 46 123 126C263-46 219 4 140 4 59 4 17-45 17-125s42-126 123-126zm0 227c63 0 89-41 89-101s-29-99-89-99c-61 0-89 39-89 99S79-25 140-24" id="A"/><path d="M85-194c31 0 48 13 60 33l-1-100h32l1 261h-30c-2-10 0-23-3-31C134-8 116 4 85 4 32 4 16-35 15-94c0-66 23-100 70-100zm9 24c-40 0-46 34-46 75 0 40 6 74 45 74 42 0 51-32 51-76 0-42-9-74-50-73" id="B"/><path d="M100-194c63 0 86 42 84 106H49c0 40 14 67 53 68 26 1 43-12 49-29l28 8c-11 28-37 45-77 45C44 4 14-33 15-96c1-61 26-98 85-98zm52 81c6-60-76-77-97-28-3 7-6 17-6 28h103" id="C"/><g id="a"><use transform="matrix(0.06790123456790123,0,0,0.06790123456790123,0,0)" xlink:href="#u"/><use transform="matrix(0.06790123456790123,0,0,0.06790123456790123,14.87037037037037,0)" xlink:href="#v"/><use transform="matrix(0.06790123456790123,0,0,0.06790123456790123,20.234567901234566,0)" xlink:href="#w"/><use transform="matrix(0.06790123456790123,0,0,0.06790123456790123,28.314814814814813,0)" xlink:href="#x"/><use transform="matrix(0.06790123456790123,0,0,0.06790123456790123,40.53703703703704,0)" xlink:href="#y"/><use transform="matrix(0.06790123456790123,0,0,0.06790123456790123,47.327160493827165,0)" xlink:href="#z"/><use transform="matrix(0.06790123456790123,0,0,0.06790123456790123,55.40740740740741,0)" xlink:href="#A"/><use transform="matrix(0.06790123456790123,0,0,0.06790123456790123,74.41975308641976,0)" xlink:href="#w"/><use transform="matrix(0.06790123456790123,0,0,0.06790123456790123,82.5,0)" xlink:href="#B"/><use transform="matrix(0.06790123456790123,0,0,0.06790123456790123,96.08024691358025,0)" xlink:href="#C"/><use transform="matrix(0.06790123456790123,0,0,0.06790123456790123,109.66049382716051,0)" xlink:href="#w"/></g><path d="M30 0v-248h33v221h125V0H30" id="D"/><path d="M100-194c62-1 85 37 85 99 1 63-27 99-86 99S16-35 15-95c0-66 28-99 85-99zM99-20c44 1 53-31 53-75 0-43-8-75-51-75s-53 32-53 75 10 74 51 75" id="E"/><path d="M206 0h-36l-40-164L89 0H53L-1-190h32L70-26l43-164h34l41 164 42-164h31" id="F"/><path d="M115-194c55 1 70 41 70 98S169 2 115 4C84 4 66-9 55-30l1 105H24l-1-265h31l2 30c10-21 28-34 59-34zm-8 174c40 0 45-34 45-75s-6-73-45-74c-42 0-51 32-51 76 0 43 10 73 51 73" id="G"/><path d="M141-36C126-15 110 5 73 4 37 3 15-17 15-53c-1-64 63-63 125-63 3-35-9-54-41-54-24 1-41 7-42 31l-33-3c5-37 33-52 76-52 45 0 72 20 72 64v82c-1 20 7 32 28 27v20c-31 9-61-2-59-35zM48-53c0 20 12 33 32 33 41-3 63-29 60-74-43 2-92-5-92 41" id="H"/><g id="b"><use transform="matrix(0.06790123456790123,0,0,0.06790123456790123,0,0)" xlink:href="#D"/><use transform="matrix(0.06790123456790123,0,0,0.06790123456790123,13.580246913580247,0)" xlink:href="#E"/><use transform="matrix(0.06790123456790123,0,0,0.06790123456790123,27.160493827160494,0)" xlink:href="#F"/><use transform="matrix(0.06790123456790123,0,0,0.06790123456790123,44.74691358024691,0)" xlink:href="#z"/><use transform="matrix(0.06790123456790123,0,0,0.06790123456790123,52.82716049382716,0)" xlink:href="#G"/><use transform="matrix(0.06790123456790123,0,0,0.06790123456790123,66.4074074074074,0)" xlink:href="#H"/><use transform="matrix(0.06790123456790123,0,0,0.06790123456790123,79.98765432098764,0)" xlink:href="#x"/><use transform="matrix(0.06790123456790123,0,0,0.06790123456790123,92.20987654320987,0)" xlink:href="#x"/></g><path d="M24 0v-261h32V0H24" id="I"/><g id="c"><use transform="matrix(0.06790123456790123,0,0,0.06790123456790123,0,0)" xlink:href="#u"/><use transform="matrix(0.06790123456790123,0,0,0.06790123456790123,14.87037037037037,0)" xlink:href="#v"/><use transform="matrix(0.06790123456790123,0,0,0.06790123456790123,20.234567901234566,0)" xlink:href="#I"/><use transform="matrix(0.06790123456790123,0,0,0.06790123456790123,25.598765432098762,0)" xlink:href="#y"/><use transform="matrix(0.06790123456790123,0,0,0.06790123456790123,32.388888888888886,0)" xlink:href="#C"/><use transform="matrix(0.06790123456790123,0,0,0.06790123456790123,45.96913580246913,0)" xlink:href="#w"/></g><path fill="#333" d="M169-182c-1-43-94-46-97-3 18 66 151 10 154 114 3 95-165 93-204 36-6-8-10-19-12-30l50-8c3 46 112 56 116 5-17-69-150-10-154-114-4-87 153-88 188-35 5 8 8 18 10 28" id="J"/><path fill="#333" d="M115-3C79 11 28 4 28-45v-112H4v-33h27l15-45h31v45h36v33H77v99c-1 23 16 31 38 25v30" id="K"/><path fill="#333" d="M185-48c-13 30-37 53-82 52C43 2 14-33 14-96s30-98 90-98c62 0 83 45 84 108H66c0 31 8 55 39 56 18 0 30-7 34-22zm-45-69c5-46-57-63-70-21-2 6-4 13-4 21h74" id="L"/><path fill="#333" d="M135-150c-39-12-60 13-60 57V0H25l-1-190h47c2 13-1 29 3 40 6-28 27-53 61-41v41" id="M"/><path fill="#333" d="M110-194c64 0 96 36 96 99 0 64-35 99-97 99-61 0-95-36-95-99 0-62 34-99 96-99zm-1 164c35 0 45-28 45-65 0-40-10-65-43-65-34 0-45 26-45 65 0 36 10 65 43 65" id="N"/><g id="d"><use transform="matrix(0.06790123456790122,0,0,0.06790123456790122,0,0)" xlink:href="#J"/><use transform="matrix(0.06790123456790122,0,0,0.06790123456790122,16.29629629629629,0)" xlink:href="#K"/><use transform="matrix(0.06790123456790122,0,0,0.06790123456790122,24.376543209876537,0)" xlink:href="#L"/><use transform="matrix(0.06790123456790122,0,0,0.06790123456790122,37.95679012345679,0)" xlink:href="#M"/><use transform="matrix(0.06790123456790122,0,0,0.06790123456790122,47.462962962962955,0)" xlink:href="#L"/><use transform="matrix(0.06790123456790122,0,0,0.06790123456790122,61.0432098765432,0)" xlink:href="#N"/></g><path fill="#333" d="M24 0v-248h52V0H24" id="O"/><path fill="#333" d="M135-194c87-1 58 113 63 194h-50c-7-57 23-157-34-157-59 0-34 97-39 157H25l-1-190h47c2 12-1 28 3 38 12-26 28-41 61-42" id="P"/><path fill="#333" d="M135-194c53 0 70 44 70 98 0 56-19 98-73 100-31 1-45-17-59-34 3 33 2 69 2 105H25l-1-265h48c2 10 0 23 3 31 11-24 29-35 60-35zM114-30c33 0 39-31 40-66 0-38-9-64-40-64-56 0-55 130 0 130" id="Q"/><path fill="#333" d="M85 4C-2 5 27-109 22-190h50c7 57-23 150 33 157 60-5 35-97 40-157h50l1 190h-47c-2-12 1-28-3-38-12 25-28 42-61 42" id="R"/><g id="e"><use transform="matrix(0.06790123456790122,0,0,0.06790123456790122,0,0)" xlink:href="#O"/><use transform="matrix(0.06790123456790122,0,0,0.06790123456790122,6.790123456790122,0)" xlink:href="#P"/><use transform="matrix(0.06790123456790122,0,0,0.06790123456790122,21.660493827160487,0)" xlink:href="#Q"/><use transform="matrix(0.06790123456790122,0,0,0.06790123456790122,36.53086419753085,0)" xlink:href="#R"/><use transform="matrix(0.06790123456790122,0,0,0.06790123456790122,51.40123456790122,0)" xlink:href="#K"/></g><path d="M185-189c-5-48-123-54-124 2 14 75 158 14 163 119 3 78-121 87-175 55-17-10-28-26-33-46l33-7c5 56 141 63 141-1 0-78-155-14-162-118-5-82 145-84 179-34 5 7 8 16 11 25" id="S"/><path d="M84 4C-5 8 30-112 23-190h32v120c0 31 7 50 39 49 72-2 45-101 50-169h31l1 190h-30c-1-10 1-25-2-33-11 22-28 36-60 37" id="T"/><path d="M210-169c-67 3-38 105-44 169h-31v-121c0-29-5-50-35-48C34-165 62-65 56 0H25l-1-190h30c1 10-1 24 2 32 10-44 99-50 107 0 11-21 27-35 58-36 85-2 47 119 55 194h-31v-121c0-29-5-49-35-48" id="U"/><path d="M117-194c89-4 53 116 60 194h-32v-121c0-31-8-49-39-48C34-167 62-67 57 0H25l-1-190h30c1 10-1 24 2 32 11-22 29-35 61-36" id="V"/><path d="M177-190C167-65 218 103 67 71c-23-6-38-20-44-43l32-5c15 47 100 32 89-28v-30C133-14 115 1 83 1 29 1 15-40 15-95c0-56 16-97 71-98 29-1 48 16 59 35 1-10 0-23 2-32h30zM94-22c36 0 50-32 50-73 0-42-14-75-50-75-39 0-46 34-46 75s6 73 46 73" id="W"/><g id="f"><use transform="matrix(0.06790123456790123,0,0,0.06790123456790123,0,0)" xlink:href="#S"/><use transform="matrix(0.06790123456790123,0,0,0.06790123456790123,16.296296296296294,0)" xlink:href="#T"/><use transform="matrix(0.06790123456790123,0,0,0.06790123456790123,29.87654320987654,0)" xlink:href="#U"/><use transform="matrix(0.06790123456790123,0,0,0.06790123456790123,50.17901234567901,0)" xlink:href="#U"/><use transform="matrix(0.06790123456790123,0,0,0.06790123456790123,70.48148148148148,0)" xlink:href="#v"/><use transform="matrix(0.06790123456790123,0,0,0.06790123456790123,75.84567901234568,0)" xlink:href="#V"/><use transform="matrix(0.06790123456790123,0,0,0.06790123456790123,89.42592592592592,0)" xlink:href="#W"/></g><path d="M205 0l-28-72H64L36 0H1l101-248h38L239 0h-34zm-38-99l-47-123c-12 45-31 82-46 123h93" id="X"/><g id="g"><use transform="matrix(0.06790123456790123,0,0,0.06790123456790123,0,0)" xlink:href="#X"/><use transform="matrix(0.06790123456790123,0,0,0.06790123456790123,16.296296296296294,0)" xlink:href="#U"/><use transform="matrix(0.06790123456790123,0,0,0.06790123456790123,36.59876543209876,0)" xlink:href="#G"/></g><path d="M87 75C49 33 22-17 22-94c0-76 28-126 65-167h31c-38 41-64 92-64 168S80 34 118 75H87" id="Y"/><g id="h"><use transform="matrix(0.06790123456790123,0,0,0.06790123456790123,0,0)" xlink:href="#Y"/><use transform="matrix(0.06790123456790123,0,0,0.06790123456790123,8.080246913580247,0)" xlink:href="#W"/><use transform="matrix(0.06790123456790123,0,0,0.06790123456790123,21.660493827160494,0)" xlink:href="#H"/><use transform="matrix(0.06790123456790123,0,0,0.06790123456790123,35.24074074074074,0)" xlink:href="#v"/><use transform="matrix(0.06790123456790123,0,0,0.06790123456790123,40.60493827160494,0)" xlink:href="#V"/></g><path d="M18-150v-26h174v26H18zm0 90v-26h174v26H18" id="Z"/><use transform="matrix(0.06790123456790123,0,0,0.06790123456790123,0,0)" xlink:href="#Z" id="i"/><path d="M99-251c64 0 84 50 84 122C183-37 130 33 47-8c-14-7-20-23-25-40l30-5c6 39 69 39 84 7 9-19 16-44 16-74-10 22-31 35-62 35-49 0-73-33-73-83 0-54 28-83 82-83zm-1 141c31-1 51-18 51-49 0-36-14-67-51-67-34 0-49 23-49 58 0 34 15 58 49 58" id="aa"/><path d="M33 0v-38h34V0H33" id="ab"/><path d="M54-142c48-35 137-8 131 61C196 18 31 33 14-55l32-4c7 23 22 37 52 37 35-1 51-22 54-58 4-55-73-65-99-34H22l8-134h141v27H59" id="ac"/><g id="j"><use transform="matrix(0.06790123456790123,0,0,0.06790123456790123,0,0)" xlink:href="#aa"/><use transform="matrix(0.06790123456790123,0,0,0.06790123456790123,13.580246913580247,0)" xlink:href="#ab"/><use transform="matrix(0.06790123456790123,0,0,0.06790123456790123,20.37037037037037,0)" xlink:href="#ac"/></g><path d="M160-131c35 5 61 23 61 61C221 17 115-2 30 0v-248c76 3 177-17 177 60 0 33-19 50-47 57zm-97-11c50-1 110 9 110-42 0-47-63-36-110-37v79zm0 115c55-2 124 14 124-45 0-56-70-42-124-44v89" id="ad"/><path d="M33-261c38 41 65 92 65 168S71 34 33 75H2C39 34 66-17 66-93S39-220 2-261h31" id="ae"/><g id="k"><use transform="matrix(0.06790123456790123,0,0,0.06790123456790123,0,0)" xlink:href="#B"/><use transform="matrix(0.06790123456790123,0,0,0.06790123456790123,13.580246913580247,0)" xlink:href="#ad"/><use transform="matrix(0.06790123456790123,0,0,0.06790123456790123,29.87654320987654,0)" xlink:href="#ae"/></g><path d="M96-169c-40 0-48 33-48 73s9 75 48 75c24 0 41-14 43-38l32 2c-6 37-31 61-74 61-59 0-76-41-82-99-10-93 101-131 147-64 4 7 5 14 7 22l-32 3c-4-21-16-35-41-35" id="af"/><g id="l"><use transform="matrix(0.06790123456790123,0,0,0.06790123456790123,0,0)" xlink:href="#S"/><use transform="matrix(0.06790123456790123,0,0,0.06790123456790123,16.296296296296294,0)" xlink:href="#C"/><use transform="matrix(0.06790123456790123,0,0,0.06790123456790123,29.87654320987654,0)" xlink:href="#af"/><use transform="matrix(0.06790123456790123,0,0,0.06790123456790123,42.09876543209876,0)" xlink:href="#E"/><use transform="matrix(0.06790123456790123,0,0,0.06790123456790123,55.67901234567901,0)" xlink:href="#V"/><use transform="matrix(0.06790123456790123,0,0,0.06790123456790123,69.25925925925925,0)" xlink:href="#B"/><use transform="matrix(0.06790123456790123,0,0,0.06790123456790123,82.83950617283949,0)" xlink:href="#z"/><use transform="matrix(0.06790123456790123,0,0,0.06790123456790123,90.91975308641975,0)" xlink:href="#A"/><use transform="matrix(0.06790123456790123,0,0,0.06790123456790123,109.93209876543209,0)" xlink:href="#w"/><use transform="matrix(0.06790123456790123,0,0,0.06790123456790123,118.01234567901233,0)" xlink:href="#B"/><use transform="matrix(0.06790123456790123,0,0,0.06790123456790123,131.59259259259258,0)" xlink:href="#C"/><use transform="matrix(0.06790123456790123,0,0,0.06790123456790123,145.17283950617283,0)" xlink:href="#w"/></g><path d="M197 0v-115H63V0H30v-248h33v105h134v-105h34V0h-34" id="ag"/><path d="M106-169C34-169 62-67 57 0H25v-261h32l-1 103c12-21 28-36 61-36 89 0 53 116 60 194h-32v-121c2-32-8-49-39-48" id="ah"/><g id="m"><use transform="matrix(0.06790123456790123,0,0,0.06790123456790123,0,0)" xlink:href="#ag"/><use transform="matrix(0.06790123456790123,0,0,0.06790123456790123,17.586419753086417,0)" xlink:href="#v"/><use transform="matrix(0.06790123456790123,0,0,0.06790123456790123,22.950617283950614,0)" xlink:href="#W"/><use transform="matrix(0.06790123456790123,0,0,0.06790123456790123,36.53086419753086,0)" xlink:href="#ah"/><use transform="matrix(0.06790123456790123,0,0,0.06790123456790123,50.11111111111111,0)" xlink:href="#z"/><use transform="matrix(0.06790123456790123,0,0,0.06790123456790123,58.191358024691354,0)" xlink:href="#G"/><use transform="matrix(0.06790123456790123,0,0,0.06790123456790123,71.77160493827161,0)" xlink:href="#H"/><use transform="matrix(0.06790123456790123,0,0,0.06790123456790123,85.35185185185185,0)" xlink:href="#x"/><use transform="matrix(0.06790123456790123,0,0,0.06790123456790123,97.57407407407406,0)" xlink:href="#x"/></g><path d="M30-248c87 1 191-15 191 75 0 78-77 80-158 76V0H30v-248zm33 125c57 0 124 11 124-50 0-59-68-47-124-48v98" id="ai"/><path d="M143 0L79-87 56-68V0H24v-261h32v163l83-92h37l-77 82L181 0h-38" id="aj"/><g id="n"><use transform="matrix(0.06790123456790123,0,0,0.06790123456790123,0,0)" xlink:href="#ai"/><use transform="matrix(0.06790123456790123,0,0,0.06790123456790123,16.296296296296294,0)" xlink:href="#C"/><use transform="matrix(0.06790123456790123,0,0,0.06790123456790123,29.87654320987654,0)" xlink:href="#H"/><use transform="matrix(0.06790123456790123,0,0,0.06790123456790123,43.456790123456784,0)" xlink:href="#aj"/></g><path d="M30-248c118-7 216 8 213 122C240-48 200 0 122 0H30v-248zM63-27c89 8 146-16 146-99s-60-101-146-95v194" id="ak"/><g id="o"><use transform="matrix(0.06790123456790123,0,0,0.06790123456790123,0,0)" xlink:href="#ak"/><use transform="matrix(0.06790123456790123,0,0,0.06790123456790123,17.586419753086417,0)" xlink:href="#C"/><use transform="matrix(0.06790123456790123,0,0,0.06790123456790123,31.166666666666664,0)" xlink:href="#y"/><use transform="matrix(0.06790123456790123,0,0,0.06790123456790123,37.95679012345679,0)" xlink:href="#C"/><use transform="matrix(0.06790123456790123,0,0,0.06790123456790123,51.53703703703703,0)" xlink:href="#af"/><use transform="matrix(0.06790123456790123,0,0,0.06790123456790123,63.75925925925925,0)" xlink:href="#y"/><use transform="matrix(0.06790123456790123,0,0,0.06790123456790123,70.54938271604938,0)" xlink:href="#E"/><use transform="matrix(0.06790123456790123,0,0,0.06790123456790123,84.12962962962962,0)" xlink:href="#w"/></g><g id="p"><use transform="matrix(0.06790123456790123,0,0,0.06790123456790123,0,0)" xlink:href="#Y"/><use transform="matrix(0.06790123456790123,0,0,0.06790123456790123,8.080246913580247,0)" xlink:href="#ag"/><use transform="matrix(0.06790123456790123,0,0,0.06790123456790123,25.666666666666664,0)" xlink:href="#v"/><use transform="matrix(0.06790123456790123,0,0,0.06790123456790123,31.03086419753086,0)" xlink:href="#W"/><use transform="matrix(0.06790123456790123,0,0,0.06790123456790123,44.61111111111111,0)" xlink:href="#ah"/></g><path d="M101-234c-31-9-42 10-38 44h38v23H63V0H32v-167H5v-23h27c-7-52 17-82 69-68v24" id="al"/><path d="M145-31C134-9 116 4 85 4 32 4 16-35 15-94c0-59 17-99 70-100 32-1 48 14 60 33 0-11-1-24 2-32h30l-1 268h-32zM93-21c41 0 51-33 51-76s-8-73-50-73c-40 0-46 35-46 75s5 74 45 74" id="am"/><g id="q"><use transform="matrix(0.06790123456790123,0,0,0.06790123456790123,0,0)" xlink:href="#al"/><use transform="matrix(0.06790123456790123,0,0,0.06790123456790123,6.790123456790123,0)" xlink:href="#w"/><use transform="matrix(0.06790123456790123,0,0,0.06790123456790123,14.87037037037037,0)" xlink:href="#C"/><use transform="matrix(0.06790123456790123,0,0,0.06790123456790123,28.450617283950617,0)" xlink:href="#am"/><use transform="matrix(0.06790123456790123,0,0,0.06790123456790123,42.03086419753086,0)" xlink:href="#T"/><use transform="matrix(0.06790123456790123,0,0,0.06790123456790123,55.61111111111111,0)" xlink:href="#C"/><use transform="matrix(0.06790123456790123,0,0,0.06790123456790123,69.19135802469135,0)" xlink:href="#V"/><use transform="matrix(0.06790123456790123,0,0,0.06790123456790123,82.7716049382716,0)" xlink:href="#af"/><use transform="matrix(0.06790123456790123,0,0,0.06790123456790123,94.99382716049382,0)" xlink:href="#v"/><use transform="matrix(0.06790123456790123,0,0,0.06790123456790123,100.35802469135803,0)" xlink:href="#C"/><use transform="matrix(0.06790123456790123,0,0,0.06790123456790123,113.93827160493828,0)" xlink:href="#x"/><use transform="matrix(0.06790123456790123,0,0,0.06790123456790123,126.16049382716051,0)" xlink:href="#ae"/></g><g id="r"><use transform="matrix(0.06790123456790123,0,0,0.06790123456790123,0,0)" xlink:href="#Y"/><use transform="matrix(0.06790123456790123,0,0,0.06790123456790123,8.080246913580247,0)" xlink:href="#D"/><use transform="matrix(0.06790123456790123,0,0,0.06790123456790123,21.660493827160494,0)" xlink:href="#E"/><use transform="matrix(0.06790123456790123,0,0,0.06790123456790123,35.24074074074074,0)" xlink:href="#F"/></g><path d="M30 0v-248h187v28H63v79h144v27H63v87h162V0H30" id="an"/><g id="s"><use transform="matrix(0.06790123456790123,0,0,0.06790123456790123,0,0)" xlink:href="#D"/><use transform="matrix(0.06790123456790123,0,0,0.06790123456790123,13.580246913580247,0)" xlink:href="#an"/><use transform="matrix(0.06790123456790123,0,0,0.06790123456790123,29.87654320987654,0)" xlink:href="#ak"/></g><path d="M108 0H70L1-190h34L89-25l56-165h34" id="ao"/><g id="t"><use transform="matrix(0.06790123456790123,0,0,0.06790123456790123,0,0)" xlink:href="#ak"/><use transform="matrix(0.06790123456790123,0,0,0.06790123456790123,17.586419753086417,0)" xlink:href="#w"/><use transform="matrix(0.06790123456790123,0,0,0.06790123456790123,25.666666666666664,0)" xlink:href="#v"/><use transform="matrix(0.06790123456790123,0,0,0.06790123456790123,31.03086419753086,0)" xlink:href="#ao"/><use transform="matrix(0.06790123456790123,0,0,0.06790123456790123,43.25308641975308,0)" xlink:href="#C"/><use transform="matrix(0.06790123456790123,0,0,0.06790123456790123,56.83333333333333,0)" xlink:href="#w"/></g></defs></g></svg>